<svg width="69" height="40" viewBox="0 0 69 40" fill="none" xmlns="http://www.w3.org/2000/svg">
<path d="M20 38C17.6362 38 15.2956 37.5344 13.1117 36.6298C10.9278 35.7252 8.94353 34.3994 7.27208 32.7279C5.60062 31.0565 4.27475 29.0722 3.37017 26.8883C2.46558 24.7044 2 22.3638 2 20C2 17.6362 2.46559 15.2956 3.37017 13.1117C4.27475 10.9278 5.60062 8.94353 7.27208 7.27208C8.94353 5.60062 10.9278 4.27475 13.1117 3.37017C15.2956 2.46558 17.6362 2 20 2" stroke="#0036C2" stroke-width="4"/>
<path d="M56 8C57.4445 8 58.8749 8.28452 60.2095 8.83733C61.5441 9.39013 62.7567 10.2004 63.7782 11.2218C64.7996 12.2433 65.6099 13.4559 66.1627 14.7905C66.7155 16.1251 67 17.5555 67 19C67 20.4445 66.7155 21.8749 66.1627 23.2095C65.6099 24.5441 64.7996 25.7567 63.7782 26.7782C62.7567 27.7996 61.5441 28.6099 60.2095 29.1627C58.8749 29.7155 57.4445 30 56 30" stroke="#0036C2" stroke-width="4"/>
<line x1="27.4142" y1="8.58579" x2="47.4142" y2="28.5858" stroke="#0036C2" stroke-width="4"/>
<line x1="26.5858" y1="28.5858" x2="46.5858" y2="8.58579" stroke="#0036C2" stroke-width="4"/>
</svg>
