<svg width="204" height="147" viewBox="0 0 204 147" fill="none" xmlns="http://www.w3.org/2000/svg">
<ellipse rx="23.3811" ry="23.4128" transform="matrix(-0.865437 -0.501017 0.498984 -0.866611 31.9175 32.0037)" fill="#2F5DED" fill-opacity="0.2"/>
<path d="M12.9807 21.0409C19.0205 10.5514 32.3948 6.96015 42.8516 13.0138C53.3084 19.0674 56.8939 32.477 50.8542 42.9665C44.8145 53.456 31.4401 57.0472 20.9833 50.9936C10.5265 44.9399 6.94103 31.5304 12.9807 21.0409Z" stroke="#0036C2" stroke-opacity="0.2" stroke-width="3"/>
<ellipse rx="23.3811" ry="23.4128" transform="matrix(-0.865437 -0.501017 0.498984 -0.866611 59.5718 48.0134)" fill="#2F5DED" fill-opacity="0.4"/>
<path d="M40.635 37.0506C46.6748 26.5612 60.0491 22.9699 70.5059 29.0235C80.9627 35.0772 84.5482 48.4868 78.5085 58.9762C72.4688 69.4657 59.0944 73.057 48.6376 67.0033C38.1808 60.9497 34.5953 47.5401 40.635 37.0506Z" stroke="#0036C2" stroke-opacity="0.4" stroke-width="3"/>
<ellipse rx="23.7708" ry="23.4128" transform="matrix(-0.865437 -0.501017 0.498984 -0.866611 87.5634 64.2186)" fill="#2F5DED" fill-opacity="0.6"/>
<path d="M68.2894 53.0606C74.3175 42.5912 87.8341 39.0555 98.4975 45.2287C109.161 51.4019 112.865 64.9073 106.837 75.3766C100.809 85.8459 87.2926 89.3817 76.6292 83.2085C65.9659 77.0353 62.2613 63.5299 68.2894 53.0606Z" stroke="#0036C2" stroke-opacity="0.6" stroke-width="3"/>
<ellipse rx="23.3811" ry="23.4128" transform="matrix(-0.865437 -0.501017 0.498984 -0.866611 115.555 80.4236)" fill="#2F5DED" fill-opacity="0.8"/>
<path d="M96.6182 69.4608C102.658 58.9713 116.032 55.3801 126.489 61.4337C136.946 67.4873 140.531 80.8969 134.492 91.3864C128.452 101.876 115.078 105.467 104.621 99.4135C94.164 93.3599 90.5785 79.9503 96.6182 69.4608Z" stroke="#0036C2" stroke-opacity="0.8" stroke-width="3"/>
<path d="M124.272 85.4706C130.312 74.9811 143.687 71.3898 154.143 77.4435C164.6 83.4971 168.186 96.9067 162.146 107.396C156.106 117.886 142.732 121.477 132.275 115.423C121.818 109.37 118.233 95.9601 124.272 85.4706Z" fill="#2F5DED" stroke="#0036C2" stroke-width="3"/>
<path d="M153.146 104.033C159.185 93.5436 172.56 89.9523 183.017 96.006C193.473 102.06 197.059 115.469 191.019 125.959C184.98 136.448 171.605 140.039 161.148 133.986C150.692 127.932 147.106 114.523 153.146 104.033Z" fill="#EDBD2F" stroke="#0036C2" stroke-width="3"/>
</svg>
