<svg width="56" height="57" viewBox="0 0 56 57" fill="none" xmlns="http://www.w3.org/2000/svg">
<path d="M2.088 25.9998V0.799805H8.28V25.9998H2.088Z" fill="#2F5DED"/>
<path d="M6.5191 25.9998L16.8511 0.799805H23.9431L34.1311 25.9998H27.4351L25.1311 19.9158H15.3031L12.9631 25.9998H6.5191ZM17.1751 14.9838H23.2951L20.2711 6.91981L17.1751 14.9838Z" fill="#2F5DED"/>
<path d="M32.3646 0.799805H38.1966L49.6446 15.4158V0.799805H55.4766V25.9998H50.0046L38.1966 10.8078V25.9998H32.3646V0.799805Z" fill="#2F5DED"/>
<path d="M12.996 55.9998H6.444L0.828003 30.7998H7.2L10.26 46.3518L14.652 30.7998H20.448L24.84 46.3518L27.9 30.7998H34.056L28.44 55.9998H21.888L17.46 39.9438L12.996 55.9998Z" fill="#2F5DED"/>
<path d="M55.935 45.0198C55.935 46.7238 55.659 48.2838 55.107 49.6998C54.555 51.0918 53.775 52.2798 52.767 53.2638C51.783 54.2478 50.583 55.0158 49.167 55.5678C47.751 56.0958 46.179 56.3598 44.451 56.3598C42.723 56.3598 41.139 56.0958 39.699 55.5678C38.283 55.0398 37.083 54.2838 36.099 53.2998C35.115 52.3158 34.347 51.1278 33.795 49.7358C33.267 48.3198 33.003 46.7478 33.003 45.0198V30.7998H39.195V45.0198C39.195 46.7238 39.675 48.0918 40.635 49.1238C41.619 50.1318 42.903 50.6358 44.487 50.6358C46.071 50.6358 47.343 50.1318 48.303 49.1238C49.263 48.0918 49.743 46.7238 49.743 45.0198V30.7998H55.935V45.0198Z" fill="#2F5DED"/>
</svg>
